<?xml version="1.0" encoding="UTF-8"?>
<svg viewBox="0 0 448.28125 448.3125" xmlns="http://www.w3.org/2000/svg">
 <g transform="translate(-149.62 -1125.2)">
  <path d="m373.74 1135.2-62.719 62.719h-88.688v88.719l-62.719 62.719 62.719 62.719v88.719h88.688l62.719 62.719 62.719-62.719h88.719v-88.719l62.719-62.719-62.719-62.719v-88.719h-88.719l-62.719-62.719z" fill="none" stroke="#000" stroke-linecap="round" stroke-linejoin="round" stroke-width="20"/>
  <path d="m348.27 1181.9c-10.609 9.702-19.574 21.499-31.312 29.719-26.781 0.2976-53.562 0.5618-80.344 0.7812-0.46272 27.048 0.9976 54.325-0.76892 81.232-17.671 18.95-36.558 36.905-54.7 55.487 17.672 18.252 37.184 35.275 53.156 55.219 4.0404 16.078 1.4233 32.966 2.3125 49.406v32.031c26.6 0.4624 53.43-0.9964 79.888 0.769 19.401 18.127 37.819 37.507 56.831 56.137 19.048-18.372 37.049-38.361 56.919-55.831 26.535-1.066 53.233-0.6925 79.831-1.1374 0.66466-26.005-1.6964-52.321 1.75-78.125 4.1999-9.6934 13.809-15.516 20.25-23.625 11.527-11.716 23.281-23.237 34.906-34.875-18.351-19.085-38.374-37.085-55.863-56.95-1.0659-26.524-0.69203-53.212-1.1373-79.8-26.579-0.4626-53.388 0.9967-79.825-0.7689-19.154-17.896-37.37-37.12-56.143-55.387l-25.75 25.719z" fill="#333" fill-rule="evenodd"/>
  <path d="m235.62 1293.8 195.72 192.94" fill="#fff" fill-rule="evenodd" stroke="#fff" stroke-linecap="round" stroke-width="5"/>
  <path d="m234.61 1405.2 195.72-193.19" fill="#fff" fill-rule="evenodd" stroke="#fff" stroke-linecap="round" stroke-width="5"/>
  <path d="m317.19 1487.5 194.45-194.45" fill="#fff" fill-rule="evenodd" stroke="#fff" stroke-linecap="round" stroke-width="5"/>
  <path d="m317.19 1211.2 195.21 194.71" fill="#fff" fill-rule="evenodd" stroke="#fff" stroke-linecap="round" stroke-width="5"/>
 </g>
</svg>
